<?xml version="1.0"?>
<svg xmlns="http://www.w3.org/2000/svg" xmlns:xlink="http://www.w3.org/1999/xlink" xmlns:svgjs="http://svgjs.com/svgjs" version="1.1" width="96" height="96" x="0" y="0" viewBox="0 0 512 512" style="enable-background:new 0 0 512 512" xml:space="preserve" class=""><circle r="256" cx="256" cy="256" fill="#f3f9ff" shape="circle"/><g transform="matrix(0.7,0,0,0.7,76.7999997138977,76.799995136261)"><g xmlns="http://www.w3.org/2000/svg"><path d="m431.373 32.26c-26.015 0-47.179 21.165-47.179 47.18v298.745c0 22.083-17.979 40.049-40.077 40.049h-17.346c-4.267 0-7.726 3.459-7.726 7.726s3.459 7.726 7.726 7.726h17.346c30.62 0 55.53-24.898 55.53-55.502v-298.744c0-17.495 14.232-31.727 31.726-31.727 17.493 0 31.725 14.232 31.725 31.727v231.841c0 4.268 3.459 7.726 7.726 7.726s7.726-3.459 7.726-7.726v-231.841c.001-26.015-21.163-47.18-47.177-47.18z" fill="#c3d4eb" data-original="#7e707d" style="" class=""/><g><path clip-rule="evenodd" d="m490.098 401.401v-70.846c0-10.601-8.673-19.274-19.273-19.274s-19.273 8.673-19.273 19.274v70.846c6.395 7.885 28.851 9.111 38.546 0z" fill="#a4c5f1" fill-rule="evenodd" data-original="#c3ddff" style="" class=""/></g><g><path clip-rule="evenodd" d="m512 432.415c0-14.222-9.169-26.429-21.902-31.013-3.446-1.227-7.155-1.898-11.038-1.898h-16.47c-3.884 0-7.593.672-11.038 1.898-12.732 4.585-21.902 16.792-21.902 31.013v12.032c0 2.453 2.015 4.439 4.439 4.439h73.472c2.424 0 4.439-1.986 4.439-4.439z" fill="#b1b5b9" fill-rule="evenodd" data-original="#f9f7f8" style="" class=""/></g><g><path clip-rule="evenodd" d="m512 432.415c0-14.222-9.169-26.429-21.902-31.013-3.446-1.227-7.155-1.898-11.038-1.898h-16.47c3.884 0 7.593.672 11.038 1.898 4.176 1.489 7.972 3.826 11.184 6.775 6.57 6.016 10.717 14.66 10.717 24.238v12.032c0 2.453-2.015 4.439-4.439 4.439h16.47c2.424 0 4.439-1.986 4.439-4.439v-12.032z" fill="#f0f0f0" fill-rule="evenodd" data-original="#f0f0f0" style="" class=""/></g><g><path clip-rule="evenodd" d="m490.098 401.401v-70.846c0-10.601-8.673-19.274-19.273-19.274-3.796 0-7.359 1.11-10.367 3.037 7.914 2.424 13.667 9.783 13.667 18.456v66.729h4.935c3.884 0 7.593.672 11.038 1.898z" fill="#00caf6" fill-rule="evenodd" data-original="#a4ccff" style="" class=""/></g><g><path clip-rule="evenodd" d="m133.453 242.45h77.006v95.99h-77.006z" fill="#e6fcff" fill-rule="evenodd" data-original="#e0dfe1" style="" class=""/></g><g><path clip-rule="evenodd" d="m171.971 418.193-101.711-100.371h-9.899c-23.77 0-43.219 19.449-43.219 43.22v96.194l157.399 10.922 152.23-10.922v-31.246-64.947c0-23.771-19.449-43.22-43.219-43.22h-9.87z" fill="#a4c5f1" fill-rule="evenodd" data-original="#c3ddff" style="" class=""/></g><g><path clip-rule="evenodd" d="m210.459 317.822h-77.006-63.193v81.126c0 10.601 8.644 19.245 19.215 19.245h164.963c10.571 0 19.244-8.644 19.244-19.245v-81.126z" fill="#b1b5b9" fill-rule="evenodd" data-original="#f9f7f8" style="" class=""/></g><g><path clip-rule="evenodd" d="m326.771 457.237h-309.629v33.671c0 2.949 2.424 5.373 5.373 5.373h298.912c2.92 0 5.344-2.424 5.344-5.373z" fill="#c3d4eb" fill-rule="evenodd" data-original="#7e707d" style="" class=""/></g><g><path clip-rule="evenodd" d="m273.682 398.948v-81.126h-25.055v81.126c0 10.542-8.585 19.157-19.098 19.245h24.909c10.571 0 19.244-8.644 19.244-19.245z" fill="#f0f0f0" fill-rule="evenodd" data-original="#f0f0f0" style="" class=""/></g><g><path clip-rule="evenodd" d="m326.771 361.043c0-23.771-19.449-43.22-43.219-43.22h-9.87v13.287c17.959 5.227 31.188 21.902 31.188 41.497v64.947 19.683h21.902v-31.247-64.947z" fill="#00caf6" fill-rule="evenodd" data-original="#a4ccff" style="" class=""/></g><g><path clip-rule="evenodd" d="m326.771 490.908v-33.671h-21.901v33.671c0 2.949-2.395 5.373-5.344 5.373h21.902c2.919 0 5.343-2.424 5.343-5.373z" fill="#6a5d6a" fill-rule="evenodd" data-original="#6a5d6a" style="" class=""/></g><g><path clip-rule="evenodd" d="m210.459 263.067h-77.006v19.011h44.621c9.199 0 10.104 5.841 10.104 14.017v21.727h22.281z" fill="#d3cfd2" fill-rule="evenodd" data-original="#d3cfd2" style="" class=""/></g><g><path clip-rule="evenodd" d="m327.939 15.719h-311.965c-8.79 0-15.974 7.184-15.974 15.974v215.371c0 8.79 7.184 16.003 15.974 16.003h117.48 77.006 117.48c8.79 0 16.003-7.213 16.003-16.003v-215.371c-.001-8.79-7.214-15.974-16.004-15.974z" fill="#a4c5f1" fill-rule="evenodd" data-original="#c3ddff" style="" class=""/></g><g><path clip-rule="evenodd" d="m343.942 247.064v-215.371c0-8.79-7.213-15.974-16.003-15.974h-46.256c8.79 0 16.003 7.184 16.003 15.974v20.033 175.305 20.033c0 8.79-7.213 16.003-16.003 16.003h46.256c8.79 0 16.003-7.213 16.003-16.003z" fill="#00caf6" fill-rule="evenodd" data-original="#a4ccff" style="" class=""/></g><g><path d="m231.485 359.015c-4.267 0-7.741-3.459-7.741-7.726s3.445-7.726 7.712-7.726h.029c4.267 0 7.726 3.459 7.726 7.726s-3.459 7.726-7.726 7.726z" fill="#b3e59f" data-original="#b3e59f" style="" class=""/></g><g><path d="m191.799 359.015c-4.267 0-7.756-3.459-7.756-7.726s3.43-7.726 7.697-7.726h.058c4.267 0 7.726 3.459 7.726 7.726s-3.458 7.726-7.725 7.726z" fill="#e6fcff" data-original="#e0dfe1" style="" class=""/></g><g><path d="m152.172 359.015c-4.267 0-7.756-3.459-7.756-7.726s3.43-7.726 7.697-7.726h.058c4.267 0 7.726 3.459 7.726 7.726s-3.458 7.726-7.725 7.726z" fill="#e6fcff" data-original="#e0dfe1" style="" class=""/></g><g><path d="m112.486 359.015c-4.267 0-7.756-3.459-7.756-7.726s3.43-7.726 7.697-7.726h.058c4.267 0 7.726 3.459 7.726 7.726s-3.458 7.726-7.725 7.726z" fill="#e6fcff" data-original="#e0dfe1" style="" class=""/></g><g><path d="m231.485 392.453c-4.267 0-7.741-3.459-7.741-7.726s3.445-7.726 7.712-7.726h.029c4.267 0 7.726 3.459 7.726 7.726s-3.459 7.726-7.726 7.726z" fill="#ff8086" data-original="#ff8086" style="" class=""/></g><g><path d="m191.799 392.453c-4.267 0-7.756-3.459-7.756-7.726s3.43-7.726 7.697-7.726h.058c4.267 0 7.726 3.459 7.726 7.726s-3.458 7.726-7.725 7.726z" fill="#e6fcff" data-original="#e0dfe1" style="" class=""/></g><g><path d="m152.172 392.453c-4.267 0-7.756-3.459-7.756-7.726s3.43-7.726 7.697-7.726h.058c4.267 0 7.726 3.459 7.726 7.726s-3.458 7.726-7.725 7.726z" fill="#e6fcff" data-original="#e0dfe1" style="" class=""/></g><g><path d="m112.486 392.453c-4.267 0-7.756-3.459-7.756-7.726s3.43-7.726 7.697-7.726h.058c4.267 0 7.726 3.459 7.726 7.726s-3.458 7.726-7.725 7.726z" fill="#e6fcff" data-original="#e0dfe1" style="" class=""/></g><g><path clip-rule="evenodd" d="m312.491 221.278v-163.799c0-3.154-2.57-5.753-5.724-5.753h-269.593c-3.183 0-5.753 2.599-5.753 5.753v163.799c0 3.154 2.57 5.753 5.753 5.753h269.594c3.154 0 5.723-2.599 5.723-5.753z" fill="#c3d4eb" fill-rule="evenodd" data-original="#7e707d" style="" class=""/></g><g><path clip-rule="evenodd" d="m312.491 221.278v-163.799c0-3.154-2.57-5.753-5.724-5.753h-9.082-26.515c3.154 0 5.724 2.599 5.724 5.753v23.567 27.889 112.343c0 3.154-2.57 5.753-5.724 5.753h26.516 9.082c3.154 0 5.723-2.599 5.723-5.753z" fill="#6a5d6a" fill-rule="evenodd" data-original="#6a5d6a" style="" class=""/></g><g><path d="m283.114 88.772h-28.384c-4.267 0-7.726-3.459-7.726-7.726 0-4.268 3.459-7.726 7.726-7.726h28.384c4.267 0 7.726 3.459 7.726 7.726.001 4.267-3.459 7.726-7.726 7.726z" fill="#e6fcff" data-original="#e0dfe1" style="" class=""/></g><g><path d="m281.741 116.661h-12.615c-4.267 0-7.726-3.459-7.726-7.726 0-4.268 3.459-7.726 7.726-7.726h12.615c4.267 0 7.726 3.459 7.726 7.726.001 4.267-3.458 7.726-7.726 7.726z" fill="#e6fcff" data-original="#e0dfe1" style="" class=""/></g><g><path clip-rule="evenodd" d="m262.936 159.251-30.487-49.557c-3.767-6.133-2.862-4.964-9.812-2.833-34.342 10.513-67.019 10.513-101.331 0-6.979-2.132-6.045-3.3-9.812 2.833l-30.487 49.557c-2.307 3.767-2.161 5.432 2.482 7.943 66.084 35.54 110.851 35.54 176.935 0 4.672-2.511 4.818-4.176 2.512-7.943z" fill="#e6fcff" fill-rule="evenodd" data-original="#e0dfe1" style="" class=""/></g><g><path clip-rule="evenodd" d="m262.936 159.251-30.487-49.557c-3.767-6.133-2.862-4.964-9.812-2.833-3.825 1.168-7.622 2.19-11.418 3.095.847.496 1.606 1.781 3.183 4.351l34.78 58.698c3.679-1.811 7.447-3.767 11.243-5.811 4.671-2.511 4.817-4.176 2.511-7.943z" fill="#d3cfd2" fill-rule="evenodd" data-original="#d3cfd2" style="" class=""/></g></g></g></svg>
