<svg width="96" height="96" viewBox="0 0 96 96" fill="none" xmlns="http://www.w3.org/2000/svg">
<circle cx="48" cy="48" r="48" fill="#F3F9FF"/>
<path d="M40.4517 22V29.5484C40.4517 32.3245 42.7078 34.5806 45.4839 34.5806H48C48 34.5806 53.0323 25.3548 63.9355 28.7097C73.8491 31.7626 74 45.4839 74 48C74 51.3548 72.3226 69.8065 53.871 69.8065C50.5162 69.8065 42.9678 69.8065 37.9355 65.6129C37.8852 65.571 37.8349 65.529 37.7846 65.4871C34.1362 62.56 28.7097 65.2439 28.7097 69.9239V74" stroke="#2967E0" stroke-width="2" stroke-miterlimit="10" stroke-linecap="square" stroke-linejoin="round"/>
<path d="M22 74V70.6452C22 63.7006 27.6361 58.0645 34.5806 58.0645H39.6129C39.6129 58.0645 42.129 54.7097 47.1613 54.7097C47.1613 54.7097 47.1613 51.3548 50.5161 49.6774C50.5161 49.6774 47.1613 46.3226 48 41.2903H44.6452C38.6232 41.2903 33.7419 36.409 33.7419 30.3871V22" stroke="#2967E0" stroke-width="2" stroke-miterlimit="10" stroke-linecap="square" stroke-linejoin="round"/>
<path d="M42.9678 61.4194C46.3226 58.0645 51.3549 58.9032 51.3549 58.9032C51.3549 53.871 54.7097 53.0323 54.7097 53.0323H68.1291C68.1291 53.0323 65.6129 64.7742 53.871 64.7742C43.8065 64.7742 42.9678 61.4194 42.9678 61.4194Z" stroke="#00CAF6" stroke-width="2" stroke-miterlimit="10" stroke-linecap="square" stroke-linejoin="round"/>
</svg>
