<svg width="96" height="96" viewBox="0 0 96 96" fill="none" xmlns="http://www.w3.org/2000/svg">
<circle cx="48" cy="48" r="48" fill="#F3F9FF"/>
<path d="M27.871 22C36.149 30.2781 40.6361 29.9258 45.0226 30.4123C48.4445 30.7897 49.8955 32.3581 50.3819 32.8445C52.8058 35.2684 52.8058 39.1852 50.3819 41.609C49.4006 42.5903 48.1761 43.1606 46.9097 43.3535C46.5574 43.4039 46.0794 43.4039 45.5845 43.3703C44.3348 43.2948 43.3032 44.3181 43.3787 45.5761C43.4123 46.071 43.4123 46.549 43.3619 46.9013C43.1774 48.1677 42.5987 49.3923 41.6174 50.3735C39.1935 52.7974 35.2768 52.7974 32.8529 50.3735C32.3665 49.8871 30.7981 48.4361 30.4206 45.0142C29.9258 40.6361 30.2781 36.149 22 27.871" stroke="#2967E0" stroke-width="2" stroke-miterlimit="10" stroke-linecap="round" stroke-linejoin="round"/>
<path d="M68.1292 74C59.8511 65.7219 55.364 66.0741 50.9776 65.5877C47.5556 65.2103 46.1046 63.6419 45.6182 63.1554C43.1943 60.7316 43.1943 56.8148 45.6182 54.3909C46.5995 53.4096 47.824 52.8393 49.0905 52.6464C49.4427 52.5961 49.9208 52.5961 50.4156 52.6296C51.6653 52.7051 52.6969 51.6819 52.6214 50.4238C52.5879 49.929 52.5879 49.4509 52.6382 49.0987C52.8227 47.8322 53.4014 46.6077 54.3827 45.6264C56.8066 43.2025 60.7234 43.2025 63.1472 45.6264C63.6337 46.1129 65.2021 47.5638 65.5795 50.9858C66.0659 55.3722 65.7137 59.8593 73.9917 68.1374" stroke="#2967E0" stroke-width="2" stroke-miterlimit="10" stroke-linecap="round" stroke-linejoin="round"/>
<path d="M69.2446 26.6801L61.6962 34.2284" stroke="#00CAF6" stroke-width="2" stroke-miterlimit="10" stroke-linecap="round" stroke-linejoin="round"/>
<path d="M56.3871 22V32.0645" stroke="#00CAF6" stroke-width="2" stroke-miterlimit="10" stroke-linecap="round" stroke-linejoin="round"/>
<path d="M73.9999 39.6129H63.9354" stroke="#00CAF6" stroke-width="2" stroke-miterlimit="10" stroke-linecap="round" stroke-linejoin="round"/>
</svg>
