<svg id="Capa_1" enable-background="new 0 0 512.002 512.002" height="512" viewBox="0 0 512.002 512.002" width="512" xmlns="http://www.w3.org/2000/svg"><g><g><g fill="#cef"><path d="m232.33 246.88 22 37.12-7.86 61.88-143.19 144.41c-17.11 17.11-46.1 15.56-60.95-5.23-11.6-16.13-8.21-38.75 5.94-52.89z"/><path d="m469.21 10c17.25 52.04 3.82 109.32-34.93 148.07l-64.06 64.06c-15.56-15.55-41.02-15.55-56.57 0l-35.36 35.36-18.96-10.49 11.89-39.01z"/></g><path d="m278.29 257.49 7.07 49.49-38.89 38.9-14.14-99 38.89-38.89z" fill="#fff"/></g><path d="m478.702 6.853c-1.091-3.292-3.811-5.784-7.187-6.584-3.375-.799-6.924.207-9.377 2.659l-420.937 422.168c-18.016 18.003-21.021 46.292-7.008 65.776 18.292 25.608 54.49 28.157 76.188 6.458.146-.147 181.877-183.106 182.05-183.281 2.225-2.226 3.273-5.369 2.828-8.484l-6.362-44.541 31.824-31.824c11.694-11.693 30.729-11.692 42.431.002 3.906 3.904 10.236 3.902 14.14-.002l64.06-64.06c20.315-20.316 34.537-45.846 41.127-73.83 6.581-27.944 5.275-57.149-3.777-84.457zm-382.492 476.366c-6.247 6.246-14.894 9.41-23.721 8.68-8.899-.737-16.72-5.229-22.04-12.677-8.371-11.64-6.269-28.827 4.916-40.004l169.906-171.041 10.597 74.194zm157.332-158.556-10.605-74.248 21.212-21.212 10.605 74.242zm173.668-173.664-57.701 57.701c-19.407-12.83-45.859-10.71-62.93 6.359l-21.217 21.217-3.535-24.75 182.19-182.191c8.855 44.009-4.557 89.413-36.807 121.664z" fill="#80aaff"/></g></svg>