<svg width="20" height="20" viewBox="0 0 512 512"  xmlns="http://www.w3.org/2000/svg"><g><path d="m422.19 80.81c-87.48-87.48-229.31-87.48-316.78 0-79.07 79.07-86.67 202.54-22.81 290.15l-58.6 125.04 108.53-75.26c87.58 63.49 210.74 55.77 289.66-23.15 87.48-87.47 87.48-229.3 0-316.78zm-158.19 351.19c-92.78 0-168-86.41-168-193s75.22-193 168-193 168 86.41 168 193-75.22 193-168 193z" fill="#57a4ff"/><g fill="#004fac"><path d="m427.85 75.15a232.022 232.022 0 0 0 -354.47 296.64l-56.62 120.81a8 8 0 0 0 11.8 9.97l103.93-72.06a232.021 232.021 0 0 0 295.36-355.36zm-11.32 316.79a216.068 216.068 0 0 1 -279.3 22.33 7.994 7.994 0 0 0 -9.26-.1l-84.12 58.33 46-98.15a8.023 8.023 0 0 0 -.78-8.11 216.02 216.02 0 1 1 327.46 25.7z"/><path d="m472 240a8 8 0 0 1 -8 8h-24.14c-2.82 82.52-49.05 155.58-116.82 183.4a8 8 0 0 1 -6.08-14.8c61.86-25.39 104.11-92.51 106.89-168.6h-71.92c-.66 39.05-6.18 76.29-16.05 108.18-10.57 34.1-25.37 59.69-42.8 74a8 8 0 1 1 -10.16-12.36c14.8-12.15 28.18-35.72 37.67-66.38 9.41-30.38 14.68-65.99 15.34-103.44h-63.93v144a8 8 0 0 1 -16 0v-144h-63.93c.66 37.45 5.93 73.06 15.34 103.44 9.49 30.66 22.87 54.23 37.67 66.38a8 8 0 1 1 -10.16 12.36c-17.43-14.31-32.23-39.9-42.8-74-9.87-31.89-15.39-69.13-16.05-108.18h-71.92c2.78 76.09 45.03 143.21 106.89 168.6a8 8 0 0 1 -6.08 14.8c-67.77-27.82-114-100.88-116.82-183.4h-24.14a8 8 0 0 1 0-16h24.14c2.82-82.52 49.05-155.58 116.82-183.4a8 8 0 1 1 6.08 14.8c-61.86 25.39-104.11 92.51-106.89 168.6h71.92c.66-39.05 6.18-76.29 16.05-108.18 10.57-34.1 25.37-59.69 42.8-74a8 8 0 1 1 10.16 12.36c-14.8 12.15-28.18 35.72-37.67 66.38-9.41 30.38-14.68 65.99-15.34 103.44h63.93v-176a8 8 0 0 1 16 0v176h63.93c-.66-37.45-5.93-73.06-15.34-103.44-9.49-30.66-22.87-54.23-37.67-66.38a8 8 0 0 1 10.16-12.36c17.43 14.31 32.23 39.9 42.8 74 9.87 31.89 15.39 69.13 16.05 108.18h71.92c-2.78-76.09-45.03-143.21-106.89-168.6a8 8 0 0 1 6.08-14.8c67.77 27.82 114 100.88 116.82 183.4h24.14a8 8 0 0 1 8 8z"/><path d="m264 408a8 8 0 0 0 -8 8v16a8 8 0 0 0 16 0v-16a8 8 0 0 0 -8-8z"/></g></g></svg>